<svg width="38" height="39" viewBox="0 0 38 39" version="1.1" xmlns="http://www.w3.org/2000/svg"
	 xmlns:xlink="http://www.w3.org/1999/xlink">
	<title>google-icon</title>
	<desc>Created using Figma</desc>
	<g id="Canvas" transform="translate(-1117 395)">
		<g id="google-icon">
			<g id="Vector">
				<use xlink:href="#path0_fill" transform="translate(1136.39 -379.053)" fill="#4285F4"/>
			</g>
			<g id="Vector">
				<use xlink:href="#path1_fill" transform="translate(1119.07 -371.643)" fill="#34A853"/>
			</g>
			<g id="Vector">
				<use xlink:href="#path2_fill" transform="translate(1117 -384.348)" fill="#FBBC05"/>
			</g>
			<g id="Vector">
				<use xlink:href="#path3_fill" transform="translate(1119.07 -395)" fill="#EB4335"/>
			</g>
		</g>
	</g>
	<defs>
		<path id="path0_fill"
			  d="M 18.6122 3.98663C 18.6122 2.38332 18.4829 1.21332 18.203 2.37034e-07L 4.53211e-07 2.37034e-07L 4.53211e-07 7.23658L 10.6847 7.23658C 10.4694 9.03497 9.30612 11.7433 6.72104 13.5632L 6.6848 13.8055L 12.4402 18.29L 12.839 18.33C 16.5011 14.9283 18.6122 9.92327 18.6122 3.98663Z"/>
		<path id="path1_fill"
			  d="M 17.3198 15.6433C 22.5544 15.6433 26.9489 13.9099 30.1588 10.92L 24.0408 6.15322C 22.4037 7.30156 20.2063 8.10322 17.3198 8.10322C 12.1928 8.10322 7.84138 4.70166 6.29022 -7.29336e-07L 6.06285 0.0194178L 0.0782638 4.67776L 2.83257e-08 4.89658C 3.18818 11.2665 9.73694 15.6433 17.3198 15.6433Z"/>
		<path id="path2_fill"
			  d="M 8.35819 12.7049C 7.9489 11.4916 7.71203 10.1915 7.71203 8.84826C 7.71203 7.50485 7.9489 6.2049 8.33666 4.99158L 8.32582 4.73317L 2.26624 -5.28769e-07L 2.06798 0.0948485C 0.753977 2.73821 0 5.70661 0 8.84826C 0 11.9899 0.753977 14.9582 2.06798 17.6015L 8.35819 12.7049Z"/>
		<path id="path3_fill"
			  d="M 17.3198 7.53995C 20.9603 7.53995 23.416 9.12161 24.8163 10.4434L 30.288 5.07C 26.9275 1.92834 22.5544 0 17.3198 0C 9.73694 0 3.18818 4.37663 2.83257e-08 10.7466L 6.26868 15.6433C 7.84139 10.9417 12.1928 7.53995 17.3198 7.53995Z"/>
	</defs>
</svg>
