<svg width="32" height="32" viewBox="0 0 32 32" version="1.1" xmlns="http://www.w3.org/2000/svg"
	 xmlns:xlink="http://www.w3.org/1999/xlink">
	<title>av-library-books</title>
	<desc>Created using Figma</desc>
	<g id="Canvas" transform="translate(-1118 275)">
		<g id="av-library-books">
			<g id="library-books">
				<g id="Vector">
					<use xlink:href="#path0_fill" transform="translate(1118 -275)" fill="white"/>
				</g>
			</g>
		</g>
	</g>
	<defs>
		<path id="path0_fill"
			  d="M 3.2 6.4L 0 6.4L 0 28.8C 0 30.56 1.44 32 3.2 32L 25.6 32L 25.6 28.8L 3.2 28.8L 3.2 6.4ZM 28.8 0L 9.6 0C 7.84 0 6.4 1.44 6.4 3.2L 6.4 22.4C 6.4 24.16 7.84 25.6 9.6 25.6L 28.8 25.6C 30.56 25.6 32 24.16 32 22.4L 32 3.2C 32 1.44 30.56 0 28.8 0ZM 27.2 14.4L 11.2 14.4L 11.2 11.2L 27.2 11.2L 27.2 14.4ZM 20.8 20.8L 11.2 20.8L 11.2 17.6L 20.8 17.6L 20.8 20.8ZM 27.2 8L 11.2 8L 11.2 4.8L 27.2 4.8L 27.2 8Z"/>
	</defs>
</svg>
